<?xml version="1.0" encoding="UTF-8" standalone="no"?>
        <svg 
    viewBox="6.884765625 -83.349609375 441.650390625 57.275390625"
    width="434.765625"
    height="140.625"
   xmlns="http://www.w3.org/2000/svg"
   xmlns:svg="http://www.w3.org/2000/svg">
   <path d="M94.78-104.59L94.78-104.59L55.22-104.59Q58.59-98.73 59.91-93.90L59.91-93.90L90.23-93.90Q93.46-100.63 94.78-104.59ZM109.13-93.90L142.38-93.90L142.38-79.83L7.62-79.83L7.62-93.90L40.87-93.90Q39.11-99.46 36.62-103.86L36.62-103.86L41.02-104.59L16.99-104.59L16.99-118.51L65.19-118.51L65.19-127.00L83.94-127.00L83.94-118.51L133.59-118.51L133.59-104.59L112.94-104.59L114.70-104.30Q113.82-102.54 112.94-100.93Q112.06-99.32 110.60-96.68L110.60-96.68L109.13-93.90ZM39.40-46.73L39.40-39.84L66.06-39.84L66.06-46.73L39.40-46.73ZM66.06-63.72L39.40-63.72L39.40-56.84L66.06-56.84L66.06-63.72ZM83.35-56.84L110.45-56.84L110.45-63.72L83.35-63.72L83.35-56.84ZM83.35-39.84L110.45-39.84L110.45-46.73L83.35-46.73L83.35-39.84ZM83.35-10.40L83.35-3.81L143.26-3.81L143.26 9.96L6.88 9.96L6.88-3.81L66.06-3.81L66.06-10.40L17.87-10.40L17.87-23.14L66.06-23.14L66.06-29.44L22.85-29.44L22.85-74.27L127.73-74.27L127.73-29.44L83.35-29.44L83.35-23.14L132.28-23.14L132.28-10.40L83.35-10.40ZM206.69-99.02L206.69-82.47L192.33-82.47Q199.95-71.48 210.35-52.59L210.35-52.59Q210.94-51.42 211.23-50.83L211.23-50.83L199.22-36.33Q196.73-44.24 191.02-56.84L191.02-56.84L191.02 13.04L174.61 13.04L174.61-40.28Q168.16-21.97 162.60-13.33L162.60-13.33Q160.69-18.60 153.52-30.32L153.52-30.32Q164.50-48.49 171.09-76.76L171.09-76.76Q171.68-79.69 172.27-82.47L172.27-82.47L156.30-82.47L156.30-99.02L174.61-99.02L174.61-126.86L191.02-126.86L191.02-99.02L206.69-99.02ZM231.15-39.99L231.15-12.30L269.09-12.30L269.09-39.99L231.15-39.99ZM269.09-56.84L269.09-83.64L231.15-83.64L231.15-56.84L269.09-56.84ZM253.56-100.49L253.56-100.49L287.70-100.49L287.70 11.28L269.09 11.28L269.09 4.69L231.15 4.69L231.15 12.16L213.28 12.16L213.28-100.49L235.25-100.49Q239.06-114.84 240.38-126.71L240.38-126.71L261.62-124.51Q258.40-113.96 253.56-100.49ZM413.09-42.63L413.09-42.63L414.84-27.54Q410.45-26.07 377.34-16.55L377.34-16.55L371.48-33.25Q387.45-36.33 413.09-42.63ZM324.90-88.33L324.90-88.33L358.74-88.33Q350.39-100.34 340.28-110.30L340.28-110.30Q332.67-97.56 324.90-88.33ZM396.97-101.22L396.97-101.22L441.65-101.22Q441.65-101.07 441.50-93.16L441.50-93.16Q439.01-21.83 434.62-4.69L434.62-4.69Q432.86 1.61 430.66 4.54L430.66 4.54Q426.42 10.69 419.24 12.16L419.24 12.16Q418.21 12.30 417.19 12.45L417.19 12.45Q412.79 13.18 395.80 12.89L395.80 12.89Q395.36 4.54 390.67-3.37L390.67-3.37Q390.53-3.66 390.53-3.81L390.53-3.81Q400.05-2.93 409.28-2.93L409.28-2.93Q413.23-3.08 415.43-5.57L415.43-5.57Q421.29-12.30 423.63-71.04L423.63-71.04Q423.78-77.78 424.07-85.11L424.07-85.11L389.21-85.11Q383.79-75.44 378.96-69.73L378.96-69.73L412.06-69.73L412.06-54.49L376.90-54.49L376.90-67.53Q368.70-74.56 362.70-78.22L362.70-78.22L362.70-73.39L347.02-73.39L347.02-62.84L367.68-62.84L367.68-47.61L347.02-47.61L347.02-11.57Q362.55-13.62 370.31-14.79L370.31-14.79L371.04 0.73Q349.51 4.39 308.64 10.25L308.64 10.25L306.15-6.15Q310.40-6.74 320.51-7.91L320.51-7.91L320.95-7.91L321.09-8.06L322.12-8.06L322.27-8.20L323.44-8.20L323.58-8.35L324.46-8.35L324.61-8.50L325.78-8.50L325.93-8.64L326.95-8.64L327.10-8.79L328.13-8.79L328.27-8.94L329.30-8.94L329.44-9.08L330.62-9.08L330.76-9.23L331.20-9.23L331.20-47.61L308.06-47.61L308.06-62.84L331.20-62.84L331.20-73.39L316.55-73.39L316.55-79.54Q315.38-78.37 313.18-76.46L313.18-76.46Q309.38-82.76 303.52-87.45L303.52-87.45Q302.64-88.04 302.05-88.48L302.05-88.48Q320.21-103.56 329.88-125.68L329.88-125.68Q330.18-126.42 330.32-126.86L330.32-126.86L345.26-126.86Q361.67-113.38 370.90-101.22L370.90-101.22Q371.78-100.05 372.51-99.02L372.51-99.02L362.70-88.33L362.70-79.69Q378.22-95.51 385.40-124.22L385.40-124.22Q385.84-125.98 386.13-127.59L386.13-127.59L404.30-124.07Q401.22-111.77 396.97-101.22ZM360.50-16.11L360.50-16.11L348.78-19.19Q352.44-30.18 354.93-43.36L354.93-43.36L368.70-39.84Q364.01-25.05 360.50-16.11ZM310.11-38.96L310.11-38.96L322.27-42.19Q326.22-30.62 327.98-16.99L327.98-16.99L315.38-13.33Q314.50-23.88 310.11-38.96Z"/>
    </svg>
        