<svg width="194" height="194" version="1.1" xmlns="http://www.w3.org/2000/svg" xmlns:xlink="http://www.w3.org/1999/xlink"><path d="M164.71 67.58L164.71 67.58Q164.71 69.90 161.21 76.31L161.21 76.31Q159.27 79.99 159.27 82.71L159.27 82.71L158.30 127.52Q158.30 133.73 155.01 143.24L155.01 143.24Q151.71 152.35 147.63 150.61L147.63 150.61Q145.11 147.50 138.32 135.67L138.32 135.67Q137.93 135.09 137.74 134.51L137.74 134.51Q131.34 134.12 108.25 135.48L108.25 135.48L107.09 135.48Q106.70 140.33 104.95 142.07L104.95 142.07Q95.64 141.49 97.97 113.17L97.97 113.17Q98.55 105.41 98.55 104.44L98.55 104.44Q98.55 79.22 91.57 66.02L91.57 66.02Q93.70 63.11 101.85 68.93L101.85 68.93Q103.01 69.71 103.40 69.90L103.40 69.90L111.16 68.74L118.15 44.10Q120.47 33.63 119.50 24.90L119.50 24.90Q117.95 22.37 117.95 21.60L117.95 21.60Q120.09 18.49 128.23 19.27L128.23 19.27Q130.17 19.46 130.95 19.46L130.95 19.46Q137.55 21.79 137.74 21.99L137.74 21.99Q138.90 22.57 139.68 23.73L139.68 23.73L139.29 26.25Q134.25 32.66 124.74 50.89L124.74 50.89L117.95 63.50Q116.40 65.83 114.85 67.77L114.85 67.77Q119.50 67.19 134.25 62.34L134.25 62.34Q144.14 59.04 150.54 59.04L150.54 59.04Q160.63 62.92 164.71 67.58ZM146.47 73.20L146.47 73.20L145.50 70.87Q143.17 69.13 139.87 69.32L139.87 69.32L131.92 71.26L107.28 76.69Q106.89 76.89 106.51 76.89L106.51 76.89L106.12 98.81Q126.68 92.21 134.25 93.96L134.25 93.96Q139.29 95.12 140.26 99.39L140.26 99.39Q138.90 100.94 138.52 100.94L138.52 100.94Q136.19 101.91 106.12 104.05L106.12 104.05L107.09 129.07L131.14 125.39Q133.67 125.19 135.99 125.19L135.99 125.19Q139.29 125.39 144.14 129.46L144.14 129.46Q144.53 129.66 144.92 130.04L144.92 130.04L145.89 128.69Q147.83 110.26 147.44 89.89L147.44 89.89Q147.25 81.74 146.47 73.20ZM83.42 108.32L83.42 108.32L80.12 107.93L64.99 96.68Q63.83 108.32 63.63 146.15L63.63 146.15Q63.63 148.47 63.63 150.61L63.63 150.61Q63.63 157.98 57.62 162.83L57.62 162.83Q53.54 161.67 51.41 152.74L51.41 152.74Q51.22 151.97 51.02 151.77L51.02 151.77Q49.08 144.59 52.57 130.43L52.57 130.43Q54.90 121.12 55.10 116.66L55.10 116.66Q55.87 94.93 55.68 89.50L55.68 89.50Q42.68 114.91 16.68 136.06L16.68 136.06L14.36 136.25L13.77 135.48L14.16 134.12L14.36 133.92Q16.10 130.82 25.22 119.18L25.22 119.18Q26.77 117.24 27.94 115.49L27.94 115.49Q45.40 92.41 53.16 74.56L53.16 74.56L36.28 77.28Q27.35 77.86 22.50 73.20L22.50 73.20Q22.50 72.23 25.22 71.07L25.22 71.07Q32.20 70.49 52.77 65.64L52.77 65.64Q54.71 65.25 56.45 64.86L56.45 64.86L56.84 39.45Q56.07 22.76 50.05 14.23L50.05 14.23Q50.05 8.79 58.98 12.67L58.98 12.67Q66.74 16.17 69.65 20.63L69.65 20.63Q70.42 21.60 70.42 22.37L70.42 22.37Q70.42 22.96 68.87 27.61L68.87 27.61Q68.68 27.81 68.68 28.00L68.68 28.00Q65.57 36.92 65.38 60.20L65.38 60.20Q65.38 60.98 65.18 61.76L65.18 61.76L76.44 60.01Q82.06 59.82 85.17 63.89L85.17 63.89Q84.97 67.38 66.93 71.26L66.93 71.26Q65.77 71.46 65.18 71.65L65.18 71.65L64.60 91.05L64.60 91.24L76.82 94.35Q83.81 97.06 84.97 102.50L84.97 102.50L85.17 104.05Q85.17 107.35 83.42 108.32Z" stroke="#000" fill="black" /></svg>