<svg width="194" height="194" version="1.1" xmlns="http://www.w3.org/2000/svg" xmlns:xlink="http://www.w3.org/1999/xlink"><path d="M98.55 31.43L98.55 31.43Q97.78 32.98 92.93 32.98L92.93 32.98L78.18 22.12L75.27 19.40Q75.27 16.30 76.63 15.91L76.63 15.91L81.48 16.10Q93.51 16.68 96.61 22.12L96.61 22.12L97.97 26.19Q98.55 28.52 98.55 31.43ZM166.65 72.94L166.65 72.94L164.71 74.11Q101.66 75.08 63.24 81.87L63.24 81.87Q54.51 83.42 37.05 87.49L37.05 87.49L24.25 90.99Q19.98 91.76 15.33 88.66L15.33 88.66Q13.00 87.30 11.83 85.36L11.83 85.36Q11.83 83.42 13.39 83.23L13.39 83.23L77.99 74.69L92.54 72.56L92.93 72.56L98.75 54.90Q99.91 50.63 99.91 46.95L99.91 46.95L67.71 50.63Q65.18 50.83 62.66 50.83L62.66 50.83L56.26 48.31Q54.13 47.14 53.35 45.20L53.35 45.20L55.48 44.04Q81.48 41.71 105.15 36.28L105.15 36.28Q109.42 35.11 114.65 35.11L114.65 35.11Q122.03 35.11 125.32 39.96L125.32 39.96Q122.80 43.46 114.27 44.23L114.27 44.23L107.86 45.40L106.31 45.98Q110.39 48.11 112.13 52.57L112.13 52.57Q112.13 55.10 98.36 70.23L98.36 70.23Q97.39 71.20 97 71.59L97 71.59Q100.88 71.78 140.65 63.83L140.65 63.83Q142.20 63.44 142.98 63.24L142.98 63.24Q149.19 62.08 157.14 64.41L157.14 64.41Q166.84 67.12 166.65 72.94ZM73.53 63.63L73.53 63.63Q75.47 68.29 73.91 70.81L73.91 70.81L72.75 72.17Q71.59 72.94 69.45 72.94L69.45 72.94Q66.54 70.81 62.47 63.63L62.47 63.63Q61.50 61.69 60.72 60.53L60.72 60.53Q61.11 57.62 61.30 57.23L61.30 57.23Q66.74 57.23 73.53 63.63ZM150.16 168.97L150.16 168.97Q150.16 171.69 148.41 172.27L148.41 172.27L106.51 171.11Q83.23 171.11 66.74 173.05L66.74 173.05L45.98 176.93Q43.65 177.12 41.71 177.12L41.71 177.12Q36.67 177.12 32.79 172.66L32.79 172.66Q31.82 171.50 31.23 170.14L31.23 170.14L32.40 169.17L80.32 165.87L80.70 151.90L67.32 152.48Q57.62 152.10 57.04 148.02L57.04 148.02L59.17 146.86L78.18 144.92Q79.54 144.72 80.90 144.34L80.90 144.34L80.90 130.17Q80.12 130.17 65.38 131.53L65.38 131.53Q64.21 131.53 63.05 131.73L63.05 131.73Q62.86 131.92 61.69 135.61L61.69 135.61Q58.98 135.61 56.65 132.31L56.65 132.31Q54.51 129.40 52.77 119.89L52.77 119.89Q52.19 116.79 51.60 115.04L51.60 115.04Q47.92 102.43 43.65 94.87L43.65 94.87Q43.65 92.93 44.62 92.15L44.62 92.15L55.10 94.28Q55.48 94.48 56.07 94.67L56.07 94.67L100.30 87.69Q116.98 85.36 119.50 85.17L119.50 85.17Q126.10 85.17 130.56 90.21L130.56 90.21L134.83 94.87Q135.22 96.03 135.22 96.42L135.22 96.42Q135.22 97.78 131.34 101.66L131.34 101.66Q129.98 102.82 129.59 103.60L129.59 103.60L120.67 125.32Q116.79 133.28 114.07 133.28L114.07 133.28Q111.94 133.28 108.06 127.46L108.06 127.46Q98.75 127.85 89.82 129.20L89.82 129.20L89.24 142.20L104.76 139.29Q111.36 138.90 115.24 142.98L115.24 142.98Q115.24 145.89 112.71 146.28L112.71 146.28L89.24 150.16L88.66 151.13L88.66 165.29L126.88 160.83L133.08 159.66Q141.62 159.66 150.16 168.97ZM118.15 95.84L118.15 95.84Q116.40 89.82 88.08 95.06L88.08 95.06L87.11 95.25Q90.79 99.13 90.99 99.91L90.99 99.91Q91.76 101.85 90.99 104.57L90.99 104.57Q95.84 102.82 100.49 104.37L100.49 104.37Q103.21 105.34 105.15 107.28L105.15 107.28L104.76 109.42Q104.37 109.61 91.18 111.94L91.18 111.94Q90.79 112.13 90.40 112.13L90.40 112.13L90.02 122.41Q102.04 120.28 104.76 120.28L104.76 120.28Q107.09 120.28 109.42 120.86L109.42 120.86Q114.07 116.21 117.76 98.55L117.76 98.55Q117.95 97 118.15 95.84ZM62.66 126.49L80.90 123.77L80.70 113.68Q75.85 114.46 69.26 114.46L69.26 114.46L66.93 112.52Q66.54 112.13 66.54 111.55L66.54 111.55Q67.12 111.36 78.96 107.86L78.96 107.86Q79.73 107.67 80.32 107.48L80.32 107.48Q80.32 103.60 77.99 96.81L77.99 96.81Q75.08 97.19 57.81 100.88L57.81 100.88L62.66 126.49Z" stroke="#000" fill="black" /></svg>