<svg width="194" height="194" version="1.1" xmlns="http://www.w3.org/2000/svg" xmlns:xlink="http://www.w3.org/1999/xlink"><path d="M168.59 67.90L168.59 67.90Q164.51 71.78 163.54 79.73L163.54 79.73L158.89 123.97Q156.95 137.16 154.23 147.44L154.23 147.44Q152.10 155.39 145.31 164.90L145.31 164.90Q142.20 168.97 139.87 170.33L139.87 170.33Q138.71 170.91 135.41 170.91L135.41 170.91Q123.97 158.11 121.25 155.59L121.25 155.59Q119.12 153.65 117.18 152.10L117.18 152.10Q114.07 149.77 113.49 148.02L113.49 148.02Q114.27 147.44 115.24 147.44L115.24 147.44L119.31 148.22Q131.92 150.54 138.32 150.54L138.32 150.54Q148.41 142.40 150.16 89.43L150.16 89.43Q150.16 86.14 150.16 83.03L150.16 83.03Q150.16 72.36 149.77 70.42L149.77 70.42Q148.60 66.35 145.89 64.02L145.89 64.02Q143.56 64.02 125.32 68.09L125.32 68.09L114.27 69.84L108.06 69.84L106.51 69.45L97.97 80.90Q93.70 85.75 88.85 87.69L88.85 87.69L87.69 87.69L87.69 85.75Q118.92 37.05 110.00 26.00L110.00 26.00Q109.61 18.82 120.28 25.03L120.28 25.03Q125.91 28.32 127.85 30.85L127.85 30.85Q128.23 32.01 128.23 32.79L128.23 32.79Q128.23 34.34 124.55 39.58L124.55 39.58L123.19 41.71Q118.92 50.44 109.80 64.80L109.80 64.80Q124.16 62.27 134.44 59.36L134.44 59.36L145.11 56.07Q145.69 56.07 146.08 56.07L146.08 56.07Q151.51 55.48 160.05 58.59L160.05 58.59Q164.51 60.33 166.65 62.27L166.65 62.27Q168.59 63.83 168.59 67.90ZM134.44 90.60L134.44 90.60Q134.44 95.06 118.73 95.84L118.73 95.84Q111.55 96.22 105.73 95.45L105.73 95.45L100.49 94.28Q100.30 94.09 100.10 94.09L100.10 94.09L99.52 92.93Q102.63 90.79 121.83 87.69L121.83 87.69Q125.71 87.11 126.88 87.11L126.88 87.11Q131.92 87.11 134.44 90.60ZM136.58 114.65L136.58 114.65Q136.58 116.79 134.44 117.37L134.44 117.37Q116.01 123.19 105.15 123.19L105.15 123.19Q99.33 123.19 94.67 121.25L94.67 121.25L92.93 119.50L94.67 117.95Q106.51 116.79 116.79 113.88L116.79 113.88L126.49 111.16L127.26 111.16Q130.17 110.97 133.28 112.52L133.28 112.52Q135.41 113.49 136.58 114.65ZM89.05 51.02L87.88 53.16L84.39 52.77L64.80 39.19Q64.21 38.99 63.83 38.61L63.83 38.61Q55.87 52.38 38.80 73.33L38.80 73.33Q18.04 98.94 9.89 98.94L9.89 98.94L9.89 96.81Q49.28 51.22 56.65 27.35L56.65 27.35Q57.42 24.83 55.87 17.65L55.87 17.65Q55.48 15.52 55.29 14.16L55.29 14.16L56.26 13.58Q62.47 13.77 68.68 18.62L68.68 18.62Q72.75 21.73 72.75 25.03L72.75 25.03Q72.75 26.97 68.87 31.04L68.87 31.04L66.35 33.95L66.35 34.14L67.32 34.92L79.54 38.22Q88.85 41.52 89.43 47.92L89.43 47.92Q89.63 49.66 89.05 51.02L89.05 51.02ZM88.46 106.89L88.46 106.89L72.17 118.53Q71.20 118.92 70.23 119.50L70.23 119.50Q70.23 117.56 73.91 111.36L73.91 111.36Q77.41 105.15 77.41 99.91L77.41 99.91Q80.32 98.16 85.36 101.85L85.36 101.85Q88.66 104.37 88.46 106.89ZM84.39 123.38L84.39 123.38Q84.00 125.52 81.48 127.46L81.48 127.46Q75.08 131.73 56.45 139.68L56.45 139.68Q42.49 145.69 35.31 151.32L35.31 151.32L32.40 150.93Q31.43 149.96 26.00 146.86L26.00 146.86Q20.95 143.95 20.95 139.49L20.95 139.49Q22.50 137.93 27.94 138.13L27.94 138.13Q29.88 138.32 30.85 137.93L30.85 137.93L56.26 130.95L56.65 101.66L44.04 102.82L39.19 102.24Q37.05 101.46 35.70 100.10L35.70 100.10Q35.70 99.13 37.83 98.36L37.83 98.36Q38.41 98.16 38.61 97.78L38.61 97.78Q49.86 96.81 56.65 94.09L56.65 94.09Q56.26 85.94 54.71 78.76L54.71 78.76L45.40 78.18Q42.10 77.60 40.55 75.47L40.55 75.47Q40.55 74.11 42.49 73.72L42.49 73.72L66.54 67.51Q68.48 66.93 70.03 66.15L70.03 66.15Q78.18 66.15 81.48 68.68L81.48 68.68L81.09 71.00Q70.62 74.69 62.27 77.02L62.27 77.02Q66.15 80.12 67.12 81.29L67.12 81.29L66.35 90.60L66.35 90.79Q71.59 88.27 78.18 88.66L78.18 88.66Q83.03 89.05 83.42 92.34L83.42 92.34L83.03 93.31Q77.21 96.22 66.15 98.75L66.15 98.75L65.57 99.52L64.41 128.04Q66.93 127.85 76.82 124.74L76.82 124.74Q81.09 123.38 84.39 123.38ZM43.46 128.23L43.46 128.23L40.55 127.46L27.74 113.30Q27.16 112.52 27.16 112.33L27.16 112.33L27.94 110.00Q33.37 110.00 40.74 114.46L40.74 114.46Q46.17 117.56 46.17 120.67L46.17 120.67Q46.17 126.10 45.01 127.26L45.01 127.26Q44.43 127.85 43.46 128.23Z" stroke="#000" fill="black" /></svg>