<?xml version="1.0" standalone="no"?>
<!DOCTYPE svg PUBLIC "-//W3C//DTD SVG 20010904//EN"
 "http://www.w3.org/TR/2001/REC-SVG-20010904/DTD/svg10.dtd">
<svg version="1.0" xmlns="http://www.w3.org/2000/svg"
 viewBox="0 0 2600.000000 2600.000000"
 preserveAspectRatio="xMidYMid meet">
<metadata>
Created by potrace 1.15, written by Peter Selinger 2001-2017
</metadata>
<g transform="translate(0.000000,2600.000000) scale(0.100000,-0.100000)"
fill="#000000" stroke="none">
<path d="M13867 23948 c-14 -18 -69 -109 -122 -203 -100 -174 -115 -198 -122
-192 -2 2 4 50 13 106 15 99 14 151 -6 151 -14 0 -53 -56 -130 -190 -76 -131
-107 -173 -122 -164 -5 3 -7 74 -6 157 3 161 -3 200 -30 195 -23 -4 -58 -71
-143 -270 -39 -92 -78 -173 -86 -180 -15 -12 -15 -4 -9 82 3 52 9 160 12 240
8 228 -7 226 -132 -21 -44 -87 -92 -167 -118 -196 -40 -44 -45 -47 -69 -36
-20 10 -32 33 -66 135 -58 175 -81 203 -101 126 -40 -155 -59 -188 -107 -188
-43 0 -92 39 -169 136 -41 52 -79 94 -84 94 -14 0 -12 -26 10 -135 22 -107 26
-196 10 -226 -24 -43 -103 -10 -221 91 -121 105 -190 135 -204 90 -8 -25 -3
-53 36 -193 34 -122 35 -180 3 -185 -11 -2 -54 19 -99 48 -91 60 -120 73 -146
65 -24 -8 -25 -54 -4 -140 18 -74 19 -115 3 -115 -6 0 -46 22 -87 50 -185 121
-219 101 -161 -94 48 -160 55 -203 40 -221 -7 -8 -19 -15 -27 -15 -23 0 -93
39 -191 107 -51 36 -95 63 -98 60 -3 -2 41 -56 97 -118 178 -200 227 -295 165
-319 -38 -14 -131 5 -287 60 -166 58 -209 71 -209 61 0 -4 54 -40 120 -80 142
-86 210 -137 229 -175 13 -24 13 -28 -2 -44 -15 -14 -38 -17 -145 -17 -70 0
-181 3 -247 7 -86 5 -110 5 -85 -3 201 -57 266 -83 313 -127 56 -53 26 -106
-102 -182 -82 -49 -150 -106 -161 -134 -4 -12 -2 -36 5 -56 8 -22 9 -44 4 -58
-14 -39 -95 -108 -242 -208 -78 -53 -135 -94 -127 -91 8 3 51 21 95 41 237
104 245 43 25 -199 -202 -223 -231 -257 -227 -262 3 -2 46 23 95 56 95 65 157
95 172 86 26 -16 -7 -105 -89 -239 -57 -92 -111 -200 -111 -220 0 -25 20 -19
85 24 78 52 113 66 127 52 19 -19 -30 -150 -130 -342 -240 -466 -233 -450
-213 -450 5 0 56 57 114 128 148 182 207 230 207 172 0 -31 -48 -175 -112
-335 -109 -272 -139 -385 -102 -385 8 0 65 52 127 115 62 63 118 115 125 115
24 0 23 -29 -11 -201 -19 -96 -42 -214 -52 -264 -48 -259 -134 -396 -327 -522
-79 -51 -98 -68 -98 -87 0 -21 11 -29 86 -57 109 -41 134 -60 134 -103 0 -65
-62 -127 -275 -278 -183 -130 -186 -141 -20 -83 158 55 235 59 235 12 0 -50
-59 -134 -224 -320 -125 -141 -194 -230 -202 -263 -12 -48 -2 -54 96 -54 133
0 152 -26 109 -153 -26 -77 -45 -112 -229 -412 -157 -256 -220 -368 -220 -391
0 -11 15 -7 58 16 63 33 97 38 106 14 23 -60 -10 -227 -93 -462 -108 -308
-205 -777 -310 -1502 -121 -836 -206 -1673 -263 -2585 -17 -272 -17 -1167 0
-1299 7 -54 11 -101 9 -103 -2 -2 -35 18 -73 43 -152 102 -387 199 -579 239
-109 23 -289 23 -380 0 -135 -34 -279 -127 -404 -261 -227 -243 -365 -590
-432 -1088 -26 -194 -37 -682 -20 -936 59 -895 273 -1952 641 -3170 73 -242
120 -366 173 -460 99 -177 266 -374 431 -506 131 -106 344 -242 616 -394 340
-191 437 -255 540 -359 165 -166 207 -307 230 -769 27 -548 71 -780 196 -1042
115 -240 245 -396 386 -464 345 -165 880 -120 1906 159 l204 55 89 -84 c98
-92 210 -171 339 -240 165 -87 449 -186 534 -186 187 0 586 267 1145 766 478
426 1029 996 1348 1394 121 151 172 200 185 177 11 -21 -9 -115 -67 -307 -51
-172 -64 -243 -46 -255 28 -16 150 145 356 470 171 270 269 417 294 439 21 19
21 19 21 -6 0 -14 -23 -104 -51 -199 -56 -195 -68 -291 -35 -297 37 -8 179
160 376 443 134 193 150 204 150 106 0 -78 -27 -214 -106 -543 -104 -434 -112
-512 -45 -431 55 66 275 532 521 1103 64 148 76 170 91 170 19 0 29 -57 44
-243 24 -311 41 -372 90 -315 60 70 139 347 339 1187 41 169 63 234 79 228 20
-6 27 -60 37 -282 5 -121 12 -241 16 -267 21 -165 70 28 174 679 22 139 47
270 55 290 16 37 17 37 31 18 8 -11 22 -44 30 -72 8 -29 21 -77 29 -106 18
-63 37 -93 53 -83 30 19 74 275 112 661 25 252 37 318 62 350 41 53 77 24 178
-142 86 -141 95 -143 86 -22 -40 505 -5 1162 109 2064 103 809 205 1263 303
1342 46 38 106 -5 167 -117 19 -36 35 -60 35 -55 0 6 -16 86 -35 178 -39 185
-45 268 -20 247 9 -7 52 -74 97 -148 117 -195 163 -240 199 -195 28 33 17 227
-24 423 -125 599 -526 2010 -1064 3740 -369 1190 -657 2064 -811 2470 -74 192
-66 222 36 151 66 -47 72 -48 72 -21 0 29 -38 111 -133 282 -146 265 -206 395
-190 412 7 7 51 -16 119 -64 97 -68 124 -50 88 57 -68 202 -218 429 -409 618
-187 185 -371 319 -835 607 -299 186 -410 257 -410 263 0 2 36 4 80 4 214 0
391 68 725 278 155 97 296 174 362 197 28 9 18 11 -70 11 -115 1 -174 17 -276
79 -61 38 -162 129 -198 181 l-21 30 82 0 c123 1 222 39 371 143 44 31 115 79
158 108 l77 52 -67 12 c-95 16 -187 57 -301 134 -96 64 -327 254 -319 262 2 3
28 -1 58 -8 31 -7 117 -13 199 -12 131 0 152 3 223 27 44 15 95 36 115 46 l36
18 -165 6 c-181 5 -231 16 -339 73 -61 32 -160 108 -160 122 0 4 40 5 88 4
166 -7 323 40 420 125 l44 38 -149 0 c-171 0 -169 -1 -332 113 -51 35 -125 84
-163 108 -69 42 -70 43 -42 50 139 33 277 171 343 343 53 139 74 264 75 461 1
188 -11 295 -50 460 -51 216 -108 358 -205 507 -85 132 -122 216 -174 398 -25
88 -57 176 -70 196 -78 120 -260 105 -734 -58 -9 -3 10 21 42 53 109 113 75
119 -173 34 -96 -33 -179 -60 -185 -60 -5 0 19 20 53 45 43 31 62 52 62 67 0
21 -1 21 -149 15 -83 -4 -157 -4 -165 -1 -25 9 -8 30 65 80 120 81 90 82 -171
9 -241 -69 -295 -71 -215 -9 45 34 61 62 45 78 -6 6 -62 13 -137 16 -79 3
-128 9 -130 16 -2 6 21 28 52 49 30 21 55 46 55 55 0 24 -38 30 -204 30 -77 0
-151 3 -163 6 -33 9 -28 35 12 74 19 19 35 39 35 46 0 29 -38 27 -279 -16
-172 -30 -221 -26 -189 18 7 10 66 67 130 126 104 96 136 132 125 142 -2 2
-61 -31 -133 -73 -182 -107 -287 -156 -337 -157 l-42 -1 1 41 c0 32 18 72 82
184 45 79 79 146 76 149 -3 3 -36 -28 -72 -69 -127 -144 -237 -250 -260 -250
-31 0 -29 22 13 163 39 135 53 217 37 217 -6 0 -22 -15 -35 -32z"/>
</g>
</svg>
